<svg width="27" height="26" viewBox="0 0 27 26" fill="none" xmlns="http://www.w3.org/2000/svg">
<path d="M3.1795 15.7692V24.0769C3.1795 24.3217 3.27675 24.5566 3.44987 24.7297C3.62296 24.9027 3.85776 25 4.10257 25H22.5641C22.8089 25 23.0437 24.9027 23.2169 24.7297C23.3899 24.5566 23.4872 24.3217 23.4872 24.0769V15.7692M15.1795 15.7692V25M3.1795 18.5385H15.1795M1.33334 7.46154L4.10257 1H22.5641L25.3333 7.46154M1.33334 7.46154H25.3333M1.33334 7.46154L1.33334 9.30769C1.33334 10.2869 1.72235 11.2261 2.4148 11.9185C3.10724 12.611 4.0464 13 5.02565 13H5.54257C6.52183 13 7.46099 12.611 8.15342 11.9185C8.84588 11.2261 9.23488 10.2869 9.23488 9.30769V7.46154M25.3333 7.46154L25.3333 9.30769C25.3333 10.2869 24.9444 11.2261 24.2519 11.9185C23.5594 12.611 22.6202 13 21.641 13H21.1795C20.2003 13 19.2612 12.611 18.5686 11.9185C17.8762 11.2261 17.4872 10.2869 17.4872 9.30769M17.4872 7.46154V9.30769M17.4872 9.30769C17.4872 10.2869 17.0982 11.2261 16.4057 11.9185C15.7133 12.611 14.7741 13 13.7949 13H12.8718C11.8925 13 10.9534 12.611 10.261 11.9185C9.5685 11.2261 9.1795 10.2869 9.1795 9.30769V7.46154" stroke="white" stroke-width="2" stroke-linecap="round" stroke-linejoin="round"/>
</svg>
