<svg width="29" height="26" viewBox="0 0 29 26" fill="none" xmlns="http://www.w3.org/2000/svg">
<path d="M18.6667 10.9999C21.4281 10.9999 23.6667 8.76136 23.6667 5.99996C23.6667 3.23856 21.4281 1 18.6667 1M23.6667 25H27.6667V23.9156C27.6507 22.3912 27.2487 20.8956 26.4981 19.5688C25.7475 18.2419 24.6729 17.1269 23.3745 16.3279C22.5353 15.8114 21.6201 15.4379 20.6667 15.2189M10.6667 10.9999C13.4281 10.9999 15.6667 8.76136 15.6667 5.99996C15.6667 3.23856 13.4281 1 10.6667 1C7.90527 1 5.66669 3.23856 5.66669 5.99996C5.66669 8.76136 7.90527 10.9999 10.6667 10.9999ZM1.66669 24.9998V23.9156C1.68261 22.3912 2.08464 20.8956 2.83523 19.5688C3.58583 18.2419 4.66049 17.1269 5.95883 16.3279C7.25719 15.5289 8.73687 15.072 10.2596 14.9999C10.3954 14.9935 10.5311 14.9902 10.6667 14.9899C10.8022 14.9902 10.938 14.9935 11.0737 14.9999C12.5965 15.072 14.0762 15.5289 15.3745 16.3279C16.6729 17.1269 17.7475 18.2419 18.4981 19.5688C19.2487 20.8956 19.6508 22.3912 19.6667 23.9156V24.9998H1.66669Z" stroke="white" stroke-width="2" stroke-linecap="round" stroke-linejoin="round"/>
</svg>
