<svg width="26" height="26" viewBox="0 0 26 26" fill="none" xmlns="http://www.w3.org/2000/svg">
<path d="M5.11689 22.0462C5.94071 20.6939 7.09857 19.5762 8.47912 18.8008C9.85967 18.0252 11.4165 17.6179 13 17.6179C14.5834 17.6179 16.1403 18.0252 17.5208 18.8008C18.9014 19.5762 20.0591 20.6939 20.8831 22.0462M13 14.8462C15.549 14.8462 17.6154 12.7798 17.6154 10.2308C17.6154 7.68177 15.549 5.61538 13 5.61538C10.451 5.61538 8.38462 7.68177 8.38462 10.2308C8.38462 12.7798 10.451 14.8462 13 14.8462ZM13 25C19.6275 25 25 19.6275 25 13C25 6.37258 19.6275 1 13 1C6.37258 1 1 6.37258 1 13C1 19.6275 6.37258 25 13 25Z" stroke="white" stroke-width="2" stroke-linecap="round" stroke-linejoin="round"/>
</svg>
